<svg id="Capa_2" data-name="Capa 2" xmlns="http://www.w3.org/2000/svg" xmlns:xlink="http://www.w3.org/1999/xlink" viewBox="0 0 351.55 439.2"><defs><style>.cls-1{fill:url(#Degradado_sin_nombre_24);}.cls-2{fill:url(#Degradado_sin_nombre_23);}.cls-3{fill:url(#Degradado_sin_nombre_31);}</style><linearGradient id="Degradado_sin_nombre_24" x1="121.86" y1="259.73" x2="480.66" y2="259.73" gradientUnits="userSpaceOnUse"><stop offset="0" stop-color="#3d6186"/><stop offset="0.27" stop-color="#2d4763"/><stop offset="0.58" stop-color="#1e2d41"/><stop offset="0.83" stop-color="#141e2d"/><stop offset="1" stop-color="#111825"/></linearGradient><linearGradient id="Degradado_sin_nombre_23" x1="220.49" y1="582.16" x2="604.15" y2="582.16" gradientTransform="matrix(-1, 0, 0, 1, 693.9, 0)" gradientUnits="userSpaceOnUse"><stop offset="0" stop-color="#3d6186"/><stop offset="0.06" stop-color="#375678"/><stop offset="0.22" stop-color="#29405a"/><stop offset="0.38" stop-color="#1e2e43"/><stop offset="0.56" stop-color="#172232"/><stop offset="0.75" stop-color="#121a28"/><stop offset="1" stop-color="#111825"/></linearGradient><linearGradient id="Degradado_sin_nombre_31" x1="432.77" y1="245.72" x2="147.27" y2="615.88" gradientUnits="userSpaceOnUse"><stop offset="0" stop-color="#5ec3dd"/><stop offset="0.26" stop-color="#4bb9d5"/><stop offset="0.78" stop-color="#1c9fbf"/><stop offset="1" stop-color="#0593b5"/></linearGradient></defs><path class="cls-1" d="M465.76,207a55.46,55.46,0,0,1,7.52-5.64H121.86V318.12H405.45c-3.38-24.92,5.8-51.83,27.55-65.71C436.47,233.34,447.35,215.9,465.76,207Z" transform="translate(-121.86 -201.35)"/><path class="cls-2" d="M473.41,640.54V523.77H205.05a58.51,58.51,0,0,1-27.69,29.4c-.3.7-.7,1.35-1,2a68.15,68.15,0,0,1-8.7,23.19,71.21,71.21,0,0,1-3.56,12.29c-1.28,8-38.34,41.84-42.22,48.82" transform="translate(-121.86 -201.35)"/><path class="cls-3" d="M473.41,201.35c-1,0-3.36,0-6.35.12-50,1.85-112.46,25.94-145.19,77.2-2.73,4.28-4.5,7.56-5.22,8.9C293.06,331.33,233,440,121.86,639.51c1.92.15,4.62.33,7.86.4,56.88,1.26,112.42-32.13,142.44-74.4,1-1.46,1.83-2.64,2.16-3.12Z" transform="translate(-121.86 -201.35)"/></svg>