<?xml version="1.0" encoding="utf-8"?>
<!-- Generator: Adobe Illustrator 25.2.1, SVG Export Plug-In . SVG Version: 6.00 Build 0)  -->
<svg version="1.1" id="visual" xmlns="http://www.w3.org/2000/svg" xmlns:xlink="http://www.w3.org/1999/xlink" x="0px" y="0px"
	 viewBox="0 0 900 113" style="enable-background:new 0 0 900 113;" xml:space="preserve">
<style type="text/css">
	.st0{fill:#1A237E;}
</style>
<path class="st0" d="M0,31l15,7.3c15,7.4,45,22,75,19.5s60-22.1,90-35C210,10,240,4,270,3.3c30-0.6,60,4,90,19.7s60,42.3,90,43.5
	s60-23.2,90-34.3c30-11.2,60-9.2,90-6.7S690,31,720,42s60,30,90,36.2c30,6.1,60-0.5,75-3.9l15-3.3v43h-15c-15,0-45,0-75,0
	s-60,0-90,0s-60,0-90,0s-60,0-90,0s-60,0-90,0s-60,0-90,0s-60,0-90,0s-60,0-90,0s-60,0-90,0s-60,0-75,0H0V31z"/>
</svg>
